<svg width="100" height="22" viewBox="0 0 100 22" fill="none" xmlns="http://www.w3.org/2000/svg">
<g clip-path="url(#clip0)">
<path fill-rule="evenodd" clip-rule="evenodd" d="M65.5391 13.8867C65.4433 13.5906 65.343 13.2883 65.2327 12.9773C64.6302 11.2495 64.446 10.4816 64.0761 9.47109C63.9557 9.136 63.8391 8.82958 63.7288 8.54953C63.6206 8.27155 63.5247 8.02636 63.441 7.81398C63.3589 7.60136 63.2917 7.436 63.2407 7.31536C63.1976 7.43783 63.1362 7.60756 63.0524 7.81811C62.9706 8.03049 62.877 8.27568 62.7724 8.55572C62.668 8.83347 62.5499 9.14013 62.4208 9.47522C62.2412 9.93325 61.7405 11.6213 61.2664 12.9796C61.1602 13.2922 61.06 13.5924 60.9664 13.8867H58.98C59.3008 12.9715 59.6031 12.1252 59.8894 11.3491C60.1774 10.5725 60.4575 9.84081 60.7334 9.15435C61.007 8.46788 61.2768 7.81604 61.5446 7.19884C61.8102 6.58164 62.088 5.97889 62.3738 5.39058H64.1868C64.4662 5.97889 64.7421 6.58164 65.0118 7.19884C65.2839 7.81604 65.5557 8.46788 65.8311 9.15435C66.1073 9.84081 66.3871 10.5725 66.6751 11.3491C66.9632 12.1252 67.2655 12.9715 67.5868 13.8867H65.5391ZM55.9639 5.39058H57.8768V13.8867H55.9639V10.2823H52.752V13.8867H50.8391V5.39058H52.752V8.63944H55.9639V5.39058ZM45.6164 6.92292C45.4774 6.92292 45.3407 6.92705 45.2059 6.93531C45.071 6.94357 44.9545 6.95159 44.8563 6.95985V9.41168H45.457C46.1192 9.41168 46.6178 9.32178 46.9529 9.14196C47.288 8.96237 47.4557 8.62705 47.4557 8.13692C47.4557 7.89976 47.4125 7.70366 47.3268 7.54838C47.241 7.39311 47.1185 7.26834 46.9591 7.1743C46.7995 7.08026 46.6054 7.0149 46.3765 6.9782C46.1479 6.9415 45.8944 6.92292 45.6164 6.92292ZM45.494 5.29242C46.7607 5.29242 47.7334 5.51513 48.4118 5.96054C49.0903 6.40595 49.4295 7.13554 49.4295 8.14907C49.4295 9.17063 49.0862 9.90825 48.3995 10.3619C47.713 10.8154 46.732 11.0426 45.457 11.0426H44.8563V13.8867H42.9437V5.51306C43.3607 5.43141 43.802 5.37407 44.2678 5.3415C44.7339 5.3087 45.1424 5.29242 45.494 5.29242ZM41.7178 12.244V13.8867H36.0414V5.39058H37.9541V12.244H41.7178ZM32.9029 13.8867C32.8068 13.5906 32.7066 13.2883 32.5963 12.9773C31.9937 11.2495 31.8373 10.5571 31.4398 9.47109C31.3192 9.136 31.2027 8.82958 31.0926 8.54953C30.9841 8.27155 30.888 8.02636 30.8043 7.81398C30.7226 7.60136 30.6552 7.436 30.6041 7.31536C30.5612 7.43783 30.4999 7.60756 30.416 7.81811C30.3343 8.03049 30.2403 8.27568 30.1362 8.55572C30.0318 8.83347 29.9135 9.14013 29.7846 9.47522C29.7573 9.54494 29.0905 11.6589 28.6302 12.9796C28.5238 13.2922 28.4238 13.5924 28.3297 13.8867H26.3435C26.6644 12.9715 26.9669 12.1252 27.2529 11.3491C27.541 10.5725 27.821 9.84081 28.0967 9.15435C28.3706 8.46788 28.6405 7.81604 28.9082 7.19884C29.1738 6.58164 29.4515 5.97889 29.7375 5.39058H31.5502C31.83 5.97889 32.1059 6.58164 32.3756 7.19884C32.6474 7.81604 32.9192 8.46788 33.1949 9.15435C33.4708 9.84081 33.7508 10.5725 34.0389 11.3491C34.327 12.1252 34.6293 12.9715 34.9502 13.8867H32.9029Z" fill="white"/>
<path fill-rule="evenodd" clip-rule="evenodd" d="M71.6202 14.0336C72.8831 14.0336 73.6308 13.5311 74.2682 12.8201L73.3732 11.9375C72.9072 12.4155 72.3925 12.7467 71.6936 12.7467C70.5537 12.7467 69.7567 11.8148 69.7567 10.6625V10.638C69.7567 9.51 70.5416 8.57812 71.6202 8.57812C72.3679 8.57812 72.8464 8.90931 73.2996 9.38752L74.2193 8.39441C73.6186 7.73225 72.8583 7.27881 71.6324 7.27881C69.6952 7.27881 68.2734 8.82353 68.2734 10.6625V10.6868C68.2734 12.5258 69.6952 14.0336 71.6202 14.0336Z" fill="white"/>
<path fill-rule="evenodd" clip-rule="evenodd" d="M79.1823 11.5451C79.1823 12.3541 78.4468 12.9061 77.4663 12.9061C76.7674 12.9061 76.2154 12.5626 76.2154 11.9497V11.925C76.2154 11.2997 76.7674 10.9197 77.6991 10.9197C78.2752 10.9197 78.8025 11.03 79.1823 11.1773V11.5451ZM80.6167 13.8867V10.0495C80.6167 8.32083 79.6849 7.31555 77.7727 7.31555C76.7181 7.31555 76.0197 7.53619 75.3083 7.855L75.7128 9.04399C76.3014 8.79881 76.8408 8.63964 77.5642 8.63964C78.5943 8.63964 79.1583 9.13 79.1583 10.025V10.1474C78.6555 9.98803 78.1525 9.87771 77.3681 9.87771C75.8603 9.87771 74.7443 10.5644 74.7443 11.9986V12.0231C74.7443 13.3227 75.8234 14.0215 77.0491 14.0215C78.0303 14.0215 78.7044 13.6169 79.1456 13.0896V13.8867H80.6167Z" fill="white"/>
<path fill-rule="evenodd" clip-rule="evenodd" d="M81.9391 13.8867H83.4223V10.2457C83.4223 9.24038 83.9863 8.62731 84.8079 8.62731C85.629 8.62731 86.1196 9.1913 86.1196 10.1966V13.8867H87.6026V10.2333C87.6026 9.1913 88.1792 8.62731 88.9882 8.62731C89.8219 8.62731 90.2999 9.17914 90.2999 10.2087V13.8867H91.7836V9.75529C91.7836 8.17364 90.9253 7.27869 89.5155 7.27869C88.5345 7.27869 87.8483 7.73236 87.321 8.41905C86.9778 7.73236 86.3278 7.27869 85.396 7.27869C84.4033 7.27869 83.8393 7.81814 83.4223 8.39451V7.41355H81.9391V13.8867Z" fill="white"/>
<path fill-rule="evenodd" clip-rule="evenodd" d="M96.477 12.7345C95.4717 12.7345 94.5894 11.9129 94.5894 10.6625V10.6379C94.5894 9.39962 95.4717 8.5659 96.477 8.5659C97.4823 8.5659 98.3283 9.38746 98.3283 10.6379V10.6625C98.3283 11.9375 97.4946 12.7345 96.477 12.7345ZM93.1423 15.8482H94.6261V12.8815C95.0793 13.4822 95.754 14.0214 96.8205 14.0214C98.365 14.0214 99.8362 12.8079 99.8362 10.6625V10.6379C99.8362 8.49251 98.3531 7.27875 96.8205 7.27875C95.7781 7.27875 95.104 7.81797 94.6261 8.49251V7.41361H93.1423V15.8482Z" fill="white"/>
<path fill-rule="evenodd" clip-rule="evenodd" d="M13.58 9.75586C13.58 9.75586 9.63299 16.1575 6.39607 16.1575C0.745608 16.1575 6.01258 3.96411 10.1296 3.96411C13.0112 3.96411 13.58 9.75586 13.58 9.75586Z" fill="white"/>
<path fill-rule="evenodd" clip-rule="evenodd" d="M18.2736 17.8077C16.3457 19.8589 13.6078 21.1405 10.5704 21.1405C6.6874 21.1405 3.29428 19.0467 1.45667 15.9267C2.3913 17.199 3.97868 18.0483 6.23671 18.0483C11.7945 18.0483 14.959 13.7258 14.959 13.7258C14.959 13.7258 15.2319 17.1417 18.2736 17.8077Z" fill="white"/>
<path fill-rule="evenodd" clip-rule="evenodd" d="M19.9382 5.67102C20.7058 7.13547 21.1407 8.80198 21.1407 10.5703C21.1407 12.5258 20.609 14.3566 19.6836 15.9277C19.0781 15.5969 18.523 15.0263 18.201 14.0605C17.1976 11.0501 16.9939 10.4453 16.9939 10.4453L19.9382 5.67102Z" fill="white"/>
<path fill-rule="evenodd" clip-rule="evenodd" d="M10.5704 0C13.3305 0 15.8436 1.05826 17.7259 2.79106L15.7234 6.02248C14.9984 4.1383 13.5278 2.25023 10.6622 2.25023C4.79589 2.25023 0.447492 8.65574 0.447492 12.6709C0.447492 13.2009 0.512859 13.719 0.644052 14.2119C0.227308 13.0768 0.000244141 11.8502 0.000244141 10.5702C0.000244141 4.73257 4.73258 0 10.5704 0Z" fill="white"/>
</g>
<defs>
<clipPath id="clip0">
<rect width="100" height="21.4689" fill="white"/>
</clipPath>
</defs>
</svg>
