<svg width="30" height="32" viewBox="0 0 30 32" fill="none" xmlns="http://www.w3.org/2000/svg">
<g clip-path="url(#clip0)">
<path d="M29.575 18.4908C29.2192 18.1998 28.7294 18.1631 28.3371 18.3982C26.4772 19.5128 24.5113 20.078 22.4941 20.078C16.0125 20.078 10.7396 14.5803 10.7396 7.82284C10.7396 5.71051 11.2825 3.66374 12.3533 1.73961C12.5807 1.33113 12.547 0.819434 12.2681 0.447042C11.9893 0.0746502 11.5213 -0.0837783 11.086 0.0473455C7.95485 0.988352 5.13667 2.98483 3.15066 5.66886C1.08948 8.4547 0 11.7911 0 15.3176C0 24.116 6.86567 31.2743 15.3048 31.2743C18.6873 31.2743 21.8883 30.1389 24.5618 27.9906C27.138 25.9206 29.0539 22.9842 29.9565 19.7221C30.082 19.2689 29.931 18.7819 29.575 18.4908ZM15.3048 28.9602C8.0895 28.9602 2.2195 22.8401 2.2195 15.3176C2.2195 10.2426 5.00498 5.62428 9.23846 3.30323C8.76083 4.76642 8.52008 6.27804 8.52008 7.82284C8.52008 15.8563 14.7889 22.3919 22.4941 22.3919C23.9738 22.3919 25.4262 22.1399 26.8365 21.6402C24.6105 26.0548 20.1768 28.9602 15.3048 28.9602Z" fill="black"/>
</g>
<defs>
<clipPath id="clip0">
<rect width="30" height="31.2766" fill="white"/>
</clipPath>
</defs>
</svg>
