<svg width="30" height="28" viewBox="0 0 30 28" fill="none" xmlns="http://www.w3.org/2000/svg">
<path d="M25.9429 23.4747C28.004 21.5807 29.3486 19.2779 29.9772 16.8503C30.1572 16.1549 29.2272 15.6855 28.6786 16.1921C28.6719 16.1984 28.6651 16.2046 28.6584 16.2107C24.0726 20.4247 16.5826 20.3435 12.1087 15.967C7.89095 11.841 7.94631 5.43536 12.2294 1.36655C12.2834 1.31526 12.3379 1.26456 12.3927 1.21447C12.9429 0.712221 12.4287 -0.138484 11.6742 0.0262768C9.05588 0.598063 6.57071 1.81597 4.51967 3.68063C-1.47725 9.13268 -1.51103 17.9721 4.4459 23.461C10.3768 28.9259 20.0058 28.9304 25.9429 23.4747Z" fill="black"/>
</svg>
