<svg width="30" height="30" viewBox="0 0 30 30" fill="none" xmlns="http://www.w3.org/2000/svg">
<path d="M5.625 29.0625H20.625C21.2464 29.0618 21.8421 28.8146 22.2815 28.3753C22.7209 27.9359 22.968 27.3401 22.9688 26.7188V24.8438H24.375C24.9964 24.8431 25.5921 24.5959 26.0315 24.1565C26.4709 23.7171 26.718 23.1214 26.7188 22.5V7.85219C26.7184 7.52869 26.6512 7.20876 26.5214 6.91242C26.3917 6.61608 26.2022 6.34971 25.9647 6.13L21.0129 1.55906C20.5803 1.15887 20.0125 0.936862 19.4231 0.937501H11.7188C11.0974 0.938203 10.5016 1.18536 10.0622 1.62474C9.62286 2.06413 9.3757 2.65987 9.375 3.28125V5.15625H5.625C5.00361 5.15695 4.40788 5.40411 3.96849 5.84349C3.52911 6.28288 3.28195 6.87861 3.28125 7.5V26.7188C3.28195 27.3401 3.52911 27.9359 3.96849 28.3753C4.40788 28.8146 5.00361 29.0618 5.625 29.0625ZM10.3125 3.28125C10.3129 2.90842 10.4612 2.55098 10.7248 2.28734C10.9885 2.02371 11.3459 1.87542 11.7188 1.875H19.4231C19.5119 1.87502 19.6004 1.88339 19.6875 1.90002V5.15625C19.6882 5.77764 19.9354 6.37337 20.3747 6.81276C20.8141 7.25214 21.4099 7.4993 22.0312 7.5H23.4375V6.5625H22.0312C21.6584 6.56208 21.301 6.41379 21.0373 6.15016C20.7737 5.88653 20.6254 5.52908 20.625 5.15625V2.47688L25.3288 6.81888C25.4713 6.9507 25.585 7.11052 25.6629 7.28833C25.7407 7.46613 25.781 7.65809 25.7812 7.85219V22.5C25.7808 22.8728 25.6325 23.2303 25.3689 23.4939C25.1053 23.7575 24.7478 23.9058 24.375 23.9062H22.9688V12.0709C22.9684 11.7474 22.9012 11.4275 22.7714 11.1312C22.6417 10.8348 22.4522 10.5685 22.2147 10.3488L17.2629 5.77781C16.8303 5.37762 16.2625 5.15561 15.6731 5.15625H10.3125V3.28125ZM4.21875 7.5C4.21917 7.12717 4.36746 6.76973 4.63109 6.50609C4.89472 6.24246 5.25217 6.09417 5.625 6.09375H15.6731C15.7619 6.09377 15.8504 6.10214 15.9375 6.11877V9.375C15.9382 9.99639 16.1854 10.5921 16.6247 11.0315C17.0641 11.4709 17.6599 11.7181 18.2812 11.7188H19.6875V10.7813H18.2812C17.9084 10.7808 17.551 10.6325 17.2873 10.3689C17.0237 10.1053 16.8754 9.74783 16.875 9.375V6.69563L21.5788 11.0376C21.7213 11.1695 21.835 11.3293 21.9129 11.5071C21.9907 11.6849 22.031 11.8768 22.0312 12.0709V26.7188C22.0308 27.0916 21.8825 27.449 21.6189 27.7127C21.3553 27.9763 20.9978 28.1246 20.625 28.125H5.625C5.25217 28.1246 4.89472 27.9763 4.63109 27.7127C4.36746 27.449 4.21917 27.0916 4.21875 26.7188V7.5Z" fill="black"/>
<path d="M9.375 9.375H13.125V10.3125H9.375V9.375Z" fill="black"/>
<path d="M6.5625 9.375H7.96875V10.3125H6.5625V9.375Z" fill="black"/>
<path d="M11.25 12.1875H13.125V13.125H11.25V12.1875Z" fill="black"/>
<path d="M14.5312 15H19.6875V15.9375H14.5312V15Z" fill="black"/>
<path d="M9.84375 15H13.125V15.9375H9.84375V15Z" fill="black"/>
<path d="M6.5625 15H8.4375V15.9375H6.5625V15Z" fill="black"/>
<path d="M13.125 17.8125H19.6875V18.75H13.125V17.8125Z" fill="black"/>
<path d="M6.5625 17.8125H11.7188V18.75H6.5625V17.8125Z" fill="black"/>
<path d="M16.875 20.625H19.6875V21.5625H16.875V20.625Z" fill="black"/>
<path d="M9.84375 20.625H15.4688V21.5625H9.84375V20.625Z" fill="black"/>
<path d="M6.5625 20.625H8.4375V21.5625H6.5625V20.625Z" fill="black"/>
<path d="M12.1875 23.4375H19.6875V24.375H12.1875V23.4375Z" fill="black"/>
<path d="M6.5625 23.4375H10.7812V24.375H6.5625V23.4375Z" fill="black"/>
<path d="M6.5625 12.1875H9.84375V13.125H6.5625V12.1875Z" fill="black"/>
</svg>
