<svg width="30" height="30" viewBox="0 0 30 30" fill="none" xmlns="http://www.w3.org/2000/svg">
<path fill-rule="evenodd" clip-rule="evenodd" d="M27.5 25V16.25H25V25H4.99997V5H13.75V2.5H4.99997C3.61926 2.5 2.49997 3.61929 2.49997 5V25C2.49997 26.3808 3.61926 27.5 4.99997 27.5H25C26.3807 27.5 27.5 26.3808 27.5 25ZM23.9726 3.40427C23.3996 2.82677 22.6151 2.5 21.7967 2.5C20.9792 2.5 20.1955 2.82604 19.6192 3.40579L9.15809 13.8668C8.22331 14.6904 7.61052 15.916 7.50403 17.2341L7.49997 21.2529V22.5029H12.6682C14.0861 22.4056 15.3237 21.7869 16.1968 20.7798L26.5987 10.3823C27.1758 9.8052 27.5001 9.02249 27.5001 8.20635C27.5001 7.39021 27.1758 6.6075 26.5987 6.0304L23.9726 3.40427ZM12.58 20.006C13.2477 19.9588 13.8693 19.648 14.3685 19.077L21.9458 11.4997L18.503 8.05659L10.8701 15.687C10.3637 16.1349 10.0504 16.7615 9.99997 17.3348V20.0036L12.58 20.006ZM20.2711 6.2891L23.7136 9.73189L24.831 8.61453C24.9392 8.50628 25.0001 8.35945 25.0001 8.20635C25.0001 8.05325 24.9392 7.90643 24.831 7.79818L22.2013 5.16858C22.0943 5.06069 21.9486 5 21.7967 5C21.6447 5 21.499 5.06069 21.392 5.16858L20.2711 6.2891Z" fill="black"/>
</svg>
