<svg width="30" height="30" viewBox="0 0 30 30" fill="none" xmlns="http://www.w3.org/2000/svg">
<path fill-rule="evenodd" clip-rule="evenodd" d="M11.25 5H26.25C27.6308 5 28.75 6.11929 28.75 7.5V23.75C28.75 25.1308 27.6308 26.25 26.25 26.25H11.25H8.75H3.75C2.36929 26.25 1.25 25.1308 1.25 23.75V7.5C1.25 6.11929 2.36929 5 3.75 5H8.75H11.25ZM8.75 7.5H3.75V11.25H8.75V7.5ZM11.25 11.25V7.5H26.25V11.25H11.25ZM8.75 13.75H3.75V17.5H8.75V13.75ZM11.25 17.5V13.75H26.25V17.5H11.25ZM8.75 20H3.75V23.75H8.75V20ZM11.25 23.75V20H26.25V23.75H11.25Z" fill="black"/>
</svg>
