<svg width="30" height="30" viewBox="0 0 30 30" fill="none" xmlns="http://www.w3.org/2000/svg">
<path fill-rule="evenodd" clip-rule="evenodd" d="M11.25 1.25H18.75C20.1307 1.25 21.25 2.36929 21.25 3.75V5H25C26.3807 5 27.5 6.11929 27.5 7.5V10C27.5 11.3807 26.3807 12.5 25 12.5H24.8998L23.75 26.25C23.75 27.6307 22.6307 28.75 21.25 28.75H8.74997C7.36926 28.75 6.24997 27.6307 6.25428 26.3537L5.09981 12.5H4.99997C3.61926 12.5 2.49997 11.3807 2.49997 10V7.5C2.49997 6.11929 3.61926 5 4.99997 5H8.74997V3.75C8.74997 2.36929 9.86926 1.25 11.25 1.25ZM4.99997 7.5H8.74997H21.25H25V10H4.99997V7.5ZM7.60808 12.5H22.3915L21.2543 26.1462L21.25 26.25H8.74997L7.60808 12.5ZM18.75 3.75V5H11.25V3.75H18.75Z" fill="black"/>
</svg>
